<svg width="22" height="24" viewBox="0 0 22 24" fill="none" xmlns="http://www.w3.org/2000/svg">
<mask id="path-1-inside-1_394_1572" fill="white">
<path fill-rule="evenodd" clip-rule="evenodd" d="M10.9852 2.80604C11.2535 2.54268 11.6886 2.54268 11.957 2.80604C12.0033 2.85168 12.0416 2.90186 12.0719 2.9554C12.1771 3.00973 12.2759 3.08027 12.3644 3.1672L21.2899 11.932L19.4082 11.9446V18.6548H21.2092C21.607 18.6548 21.9296 18.9773 21.9296 19.3752C21.9296 19.7731 21.607 20.0956 21.2092 20.0956H4.69813V22.9097C4.69813 23.2357 4.42895 23.5001 4.09688 23.5001C3.76482 23.5001 3.49562 23.2357 3.49562 22.9097V19.8731H1.09067C0.663738 19.8731 0.317627 19.5333 0.317627 19.114C0.317627 18.6948 0.663738 18.355 1.09067 18.355H3.49562V11.9446H1.70459L1.69189 11.932L4.26876 9.40151V7.26321C4.26876 6.91391 4.55717 6.63059 4.91296 6.63059C5.26875 6.63059 5.55716 6.91391 5.55716 7.26321V8.13647L10.9852 2.80604Z"/>
</mask>
<path d="M20.9368 11.578L20.9241 11.5907L21.6304 12.2986L21.6431 12.2859L20.9368 11.578ZM11.957 2.80604L12.659 2.09391L12.6574 2.09233L11.957 2.80604ZM10.9852 2.80604L10.2847 2.09233L10.2845 2.09255L10.9852 2.80604ZM12.0719 2.9554L11.2017 3.44817L11.3485 3.70731L11.6131 3.84395L12.0719 2.9554ZM12.3644 3.1672L11.6635 3.88046L11.6637 3.8807L12.3644 3.1672ZM21.2899 11.932L21.2966 12.932L23.7189 12.9157L21.9906 11.2185L21.2899 11.932ZM19.4082 11.9446L19.4015 10.9446L18.4082 10.9513V11.9446H19.4082ZM19.4082 18.6548H18.4082V19.6548H19.4082V18.6548ZM4.69813 20.0956V19.0956H3.69813V20.0956H4.69813ZM3.49562 19.8731H4.49562V18.8731H3.49562V19.8731ZM3.49562 18.355V19.355H4.49562V18.355H3.49562ZM3.49562 11.9446H4.49562V10.9446H3.49562V11.9446ZM1.70459 11.9446L0.998828 12.6531L1.29149 12.9446H1.70459V11.9446ZM1.69189 11.932L0.991238 11.2185L0.269852 11.9269L0.986133 12.6404L1.69189 11.932ZM4.26876 9.40151L4.96942 10.115L5.26876 9.82105V9.40151H4.26876ZM5.55716 8.13647H4.55716V10.52L6.25782 8.84996L5.55716 8.13647ZM12.6574 2.09233C12.0001 1.44725 10.942 1.44725 10.2847 2.09233L11.6856 3.51975C11.565 3.63811 11.3771 3.63811 11.2565 3.51975L12.6574 2.09233ZM12.9421 2.46264C12.8654 2.32727 12.7702 2.2035 12.659 2.09391L11.2549 3.51817C11.2363 3.49986 11.2178 3.47645 11.2017 3.44817L12.9421 2.46264ZM13.0653 2.45394C12.9039 2.29535 12.7231 2.16621 12.5307 2.06686L11.6131 3.84395C11.6311 3.85325 11.6479 3.86519 11.6635 3.88046L13.0653 2.45394ZM21.9906 11.2185L13.065 2.45369L11.6637 3.8807L20.5893 12.6455L21.9906 11.2185ZM19.4149 12.9446L21.2966 12.932L21.2832 10.932L19.4015 10.9446L19.4149 12.9446ZM20.4082 18.6548V11.9446H18.4082V18.6548H20.4082ZM19.4082 19.6548H21.2092V17.6548H19.4082V19.6548ZM21.2092 19.6548C21.0548 19.6548 20.9296 19.5296 20.9296 19.3752H22.9296C22.9296 18.425 22.1593 17.6548 21.2092 17.6548V19.6548ZM20.9296 19.3752C20.9296 19.2208 21.0548 19.0956 21.2092 19.0956V21.0956C22.1593 21.0956 22.9296 20.3253 22.9296 19.3752H20.9296ZM21.2092 19.0956H4.69813V21.0956H21.2092V19.0956ZM5.69813 22.9097V20.0956H3.69813V22.9097H5.69813ZM4.09688 24.5001C4.96396 24.5001 5.69813 23.8051 5.69813 22.9097H3.69813C3.69813 22.6663 3.89395 22.5001 4.09688 22.5001V24.5001ZM2.49562 22.9097C2.49562 23.8052 3.22986 24.5001 4.09688 24.5001V22.5001C4.29978 22.5001 4.49562 22.6663 4.49562 22.9097H2.49562ZM2.49562 19.8731V22.9097H4.49562V19.8731H2.49562ZM1.09067 20.8731H3.49562V18.8731H1.09067V20.8731ZM-0.682373 19.114C-0.682373 20.1027 0.128765 20.8731 1.09067 20.8731V18.8731C1.19871 18.8731 1.31763 18.9638 1.31763 19.114H-0.682373ZM1.09067 17.355C0.128765 17.355 -0.682373 18.1253 -0.682373 19.114H1.31763C1.31763 19.2642 1.19871 19.355 1.09067 19.355V17.355ZM3.49562 17.355H1.09067V19.355H3.49562V17.355ZM2.49562 11.9446V18.355H4.49562V11.9446H2.49562ZM1.70459 12.9446H3.49562V10.9446H1.70459V12.9446ZM0.986133 12.6404L0.998828 12.6531L2.41034 11.2362L2.39765 11.2235L0.986133 12.6404ZM3.56811 8.688L0.991238 11.2185L2.39255 12.6455L4.96942 10.115L3.56811 8.688ZM3.26876 7.26321V9.40151H5.26876V7.26321H3.26876ZM4.91296 5.63059C4.02197 5.63059 3.26876 6.34469 3.26876 7.26321H5.26876C5.26876 7.48313 5.09237 7.63059 4.91296 7.63059V5.63059ZM6.55716 7.26321C6.55716 6.34469 5.80395 5.63059 4.91296 5.63059V7.63059C4.73355 7.63059 4.55716 7.48313 4.55716 7.26321H6.55716ZM6.55716 8.13647V7.26321H4.55716V8.13647H6.55716ZM10.2845 2.09255L4.8565 7.42298L6.25782 8.84996L11.6858 3.51953L10.2845 2.09255Z" fill="white" mask="url(#path-1-inside-1_394_1572)"/>
<path d="M15.2782 2.64115L15.2783 2.64129C16.1042 3.55581 16.559 4.73818 16.5589 5.97144V5.97147C16.5589 6.50111 16.3822 7.26335 15.9692 8.33469L15.9692 8.33478C15.4885 9.5824 14.7159 11.1753 13.6663 13.0735C12.68 14.8566 12.1801 15.7252 11.8736 16.1529C11.741 16.3378 11.6733 16.3977 11.6508 16.4145C11.6411 16.4152 11.6227 16.4158 11.5874 16.4158C11.552 16.4158 11.5337 16.4152 11.524 16.4145C11.5015 16.3977 11.4338 16.3379 11.3011 16.1527C10.9945 15.725 10.4948 14.8564 9.50863 13.0735C8.4589 11.1753 7.68634 9.5824 7.20559 8.33463L7.20557 8.33456C6.79266 7.26336 6.61597 6.50111 6.61597 5.97147C6.61597 4.73817 7.07076 3.55582 7.89674 2.64108L7.89686 2.64095C8.83761 1.59836 10.1832 1 11.5874 1C12.9916 1 14.3372 1.59835 15.2782 2.64115ZM11.5875 10.9254C12.2597 10.9254 12.8046 10.3805 12.8046 9.70833V6.80503C12.8046 6.36027 12.566 5.97123 12.2099 5.75889C12.566 5.54655 12.8046 5.15751 12.8046 4.71275V4.01956C12.8046 3.34738 12.2597 2.80246 11.5875 2.80246C10.9153 2.80246 10.3704 3.34738 10.3704 4.01956V4.71275C10.3704 5.15751 10.609 5.54655 10.9651 5.75889C10.609 5.97123 10.3704 6.36027 10.3704 6.80503V9.70833C10.3704 10.3805 10.9153 10.9254 11.5875 10.9254Z" stroke="white"/>
</svg>
