<svg width="200" height="56" viewBox="0 0 200 56" fill="none" xmlns="http://www.w3.org/2000/svg">
<path fill-rule="evenodd" clip-rule="evenodd" d="M56.3442 10.4425C56.3442 10.4425 57.4532 13.7707 59.831 14.7216C62.2082 15.6724 61.416 17.7329 61.416 17.7329C61.416 17.7329 64.4273 16.9406 63.4764 12.9784C63.0241 11.0943 61.9982 10.2134 61.0297 9.38186C59.9614 8.46471 58.9632 7.607 58.8801 5.52894C58.7214 1.56673 64.5854 0.615845 64.5854 0.615845C64.5854 0.615845 63.0009 3.31037 63.4764 5.0535C63.6315 5.62262 64.3598 6.41033 65.2659 7.39043C67.1369 9.41409 69.7645 12.2557 69.6577 15.6724C69.6557 15.7339 69.6537 15.7973 69.6516 15.8633C69.5907 18.0295 69.4557 22.8283 62.8423 23.5974C57.7705 23.756 56.1856 21.0615 54.9174 18.5256C53.1742 14.2461 56.3442 10.4425 56.3442 10.4425ZM60.7945 12.5392C60.4484 12.0371 59.8949 11.2348 59.5137 11.2348C58.8801 11.2348 57.6119 10.1252 57.2951 9.49166C56.9778 8.85756 57.4532 8.06482 58.0873 8.22347C58.3361 8.28592 58.3895 8.4209 58.4872 8.66769C58.6388 9.04996 58.8957 9.70017 60.1478 10.7593C60.7718 11.2872 60.9063 11.9248 61.0251 12.4894C61.0488 12.6032 61.0725 12.7135 61.0987 12.8198C61.1621 13.0726 61.0236 12.8722 60.7945 12.5392Z" fill="#DB2424"/>
<path d="M69.5035 30.0869H55.4014V34.1161H69.5035V30.0869Z" fill="#8BB174"/>
<path d="M69.5035 36.1307H55.4014V40.1599H69.5035V36.1307Z" fill="#8BB174"/>
<path d="M69.5035 24.5468H55.4014V28.5759H69.5035V24.5468Z" fill="#8BB174"/>
<path d="M179.551 34.3678C180.558 37.8934 180.81 38.9007 180.055 41.1671C183.658 40.457 184.856 38.3759 186.602 33.8642C187.113 39.0734 184.839 41.4189 181.062 43.4335C179.047 42.678 177.536 42.4262 177.536 42.4262C177.536 42.4262 180.306 50.4846 186.602 50.2328C192.898 49.981 192.394 47.3998 194.66 46.4554C197.682 45.1963 198.438 45.6999 199.697 45.6999C198.941 43.9372 196.927 40.1598 193.401 39.1525C189.876 38.1452 189.372 38.9007 189.372 38.9007C189.372 38.9007 190.379 35.8788 189.372 32.6051C188.365 29.3313 190.128 26.3094 190.128 26.3094C183.832 25.8058 179.047 31.8496 179.551 34.3678Z" fill="#509C40"/>
<path fill-rule="evenodd" clip-rule="evenodd" d="M26.7043 2.63048C27.3761 1.95911 28.4653 1.95911 29.137 2.63048C29.2529 2.74682 29.3489 2.87474 29.4248 3.01123C29.6882 3.14974 29.9354 3.32954 30.1569 3.55115L52.5004 25.8945L52.4687 25.9268H47.6669L31.052 9.31139C30.2433 8.54785 29.1526 8.07996 27.9526 8.07996C26.8837 8.07996 25.9015 8.45115 25.1281 9.07215L10.9364 23.264C10.9557 23.3602 10.9658 23.4594 10.9658 23.5611V33.8824L10.966 37.4256V37.4301V37.4347V37.5374H10.9672C11.0243 40.1564 13.1622 42.2621 15.7932 42.2682H15.8146C15.847 42.2682 15.8792 42.2677 15.9114 42.2667V42.2682H53.9701C55.0388 42.2682 55.9051 43.1345 55.9051 44.2032C55.9051 45.2719 55.0388 46.1382 53.9701 46.1382H10.9658V53.8793C10.9658 54.7103 10.292 55.3842 9.4607 55.3842C8.62943 55.3842 7.95554 54.7103 7.95554 53.8793V46.1382H1.93517C0.866428 46.1382 0 45.2719 0 44.2032C0 43.1345 0.866428 42.2682 1.93517 42.2682H7.95554V25.9268H3.47201L3.44023 25.8945L9.89097 19.4438V13.9928C9.89097 13.1024 10.6129 12.3801 11.5036 12.3801C12.3943 12.3801 13.1162 13.1024 13.1162 13.9928V16.2189L26.7043 2.63048Z" fill="#8BB174"/>
<path d="M13.4883 40.1599V24.0431H24.183V26.8525H16.8958V30.0003H19.5164C20.7912 30.0003 21.8903 30.2073 22.8137 30.6218C23.7423 31.0312 24.4584 31.6109 24.9621 32.3609C25.4657 33.1113 25.7175 33.9952 25.7175 35.0131C25.7175 36.0254 25.4657 36.9199 24.9621 37.6965C24.4584 38.4676 23.7423 39.071 22.8137 39.5067C21.8903 39.9418 20.7912 40.1599 19.5164 40.1599H13.4883ZM16.8958 37.421H19.5164C20.1249 37.421 20.6391 37.3107 21.0588 37.0907C21.4785 36.865 21.7959 36.5684 22.011 36.2012C22.2313 35.829 22.3415 35.4221 22.3415 34.9814C22.3415 34.3417 22.0976 33.8013 21.6096 33.3606C21.127 32.9144 20.4292 32.6918 19.5164 32.6918H16.8958V37.421ZM27.923 40.1599V24.0431H38.783V26.8525H31.3305V30.6928H38.2244V33.5022H31.3305V37.3505H38.8142V40.1599H27.923ZM41.4921 40.1599V24.0431H47.8507C49.073 24.0431 50.1146 24.2763 50.9748 24.7432C51.835 25.205 52.4908 25.8477 52.9421 26.6712C53.3984 27.4896 53.627 28.4339 53.627 29.5042C53.627 30.5744 53.3958 31.5188 52.9345 32.3372C52.4727 33.1556 51.8038 33.7933 50.9275 34.2496C50.0566 34.7064 49.002 34.9345 47.764 34.9345H43.7112V32.2037H47.213C47.8688 32.2037 48.4092 32.0909 48.8343 31.8653C49.2644 31.6346 49.5847 31.3168 49.7942 30.9129C50.0093 30.5039 50.1171 30.034 50.1171 29.5042C50.1171 28.9693 50.0093 28.5024 49.7942 28.1035C49.5847 27.6996 49.2644 27.3873 48.8343 27.1672C48.4042 26.9416 47.8582 26.8288 47.1974 26.8288H44.8993V40.1599H41.4921ZM77.09 40.38C75.9145 40.38 74.8679 40.178 73.9498 39.7741C73.0372 39.3651 72.3154 38.8036 71.7856 38.0899C71.2613 37.3712 70.9908 36.5422 70.9752 35.6034H74.4061C74.4272 35.9967 74.5557 36.3432 74.7919 36.6419C75.0331 36.936 75.3534 37.1642 75.7518 37.3269C76.1507 37.4895 76.5995 37.5706 77.0976 37.5706C77.6168 37.5706 78.0762 37.479 78.4751 37.2951C78.8735 37.1118 79.1857 36.857 79.4113 36.5321C79.637 36.2067 79.7498 35.8315 79.7498 35.4064C79.7498 34.9763 79.6289 34.5961 79.3877 34.2657C79.1515 33.9297 78.8105 33.6673 78.3648 33.4785C77.9241 33.2896 77.3993 33.1954 76.7909 33.1954H75.2875V30.6928H76.7909C77.3051 30.6928 77.7589 30.6036 78.1522 30.4254C78.5511 30.2466 78.8604 30.0003 79.081 29.6855C79.301 29.3652 79.4113 28.993 79.4113 28.5679C79.4113 28.164 79.3141 27.8099 79.1202 27.5057C78.9314 27.196 78.6639 26.9547 78.3174 26.7814C77.9764 26.6082 77.5776 26.5221 77.1213 26.5221C76.6594 26.5221 76.2373 26.6057 75.8541 26.7739C75.4713 26.9361 75.1646 27.1698 74.9334 27.474C74.7027 27.7782 74.5793 28.1353 74.5637 28.5442H71.2976C71.3137 27.6155 71.5786 26.7971 72.0928 26.0889C72.6065 25.3808 73.2991 24.8273 74.1704 24.4284C75.0462 24.0245 76.0354 23.8225 77.1369 23.8225C78.2494 23.8225 79.2225 24.0245 80.0565 24.4284C80.8906 24.8323 81.5388 25.3783 82.0006 26.0653C82.4675 26.7472 82.6982 27.5133 82.6931 28.3634C82.6982 29.2655 82.4176 30.0184 81.851 30.6218C81.2895 31.2251 80.5577 31.6079 79.6551 31.7706V31.8965C80.8407 32.0486 81.7432 32.4606 82.3622 33.1325C82.9868 33.7983 83.296 34.6328 83.291 35.6346C83.296 36.5528 83.0311 37.3687 82.4962 38.0823C81.9664 38.7955 81.2346 39.3571 80.3008 39.766C79.3665 40.1755 78.2963 40.38 77.09 40.38ZM100.645 32.1015C100.645 33.8587 100.312 35.3541 99.646 36.587C98.9847 37.8199 98.0821 38.7618 96.9389 39.412C95.8001 40.0576 94.5203 40.38 93.0985 40.38C91.6661 40.38 90.3808 40.0546 89.2421 39.4044C88.1038 38.7537 87.2043 37.8119 86.543 36.5789C85.8822 35.346 85.5513 33.8537 85.5513 32.1015C85.5513 30.3438 85.8822 28.8484 86.543 27.6155C87.2043 26.3826 88.1038 25.4438 89.2421 24.7986C90.3808 24.1479 91.6661 23.8225 93.0985 23.8225C94.5203 23.8225 95.8001 24.1479 96.9389 24.7986C98.0821 25.4438 98.9847 26.3826 99.646 27.6155C100.312 28.8484 100.645 30.3438 100.645 32.1015ZM97.1907 32.1015C97.1907 30.9627 97.0199 30.0028 96.679 29.2211C96.343 28.4395 95.8686 27.8467 95.2546 27.4427C94.6407 27.0388 93.922 26.8369 93.0985 26.8369C92.2746 26.8369 91.5558 27.0388 90.9419 27.4427C90.3284 27.8467 89.851 28.4395 89.51 29.2211C89.1741 30.0028 89.0064 30.9627 89.0064 32.1015C89.0064 33.2397 89.1741 34.1997 89.51 34.9814C89.851 35.763 90.3284 36.3563 90.9419 36.7603C91.5558 37.1642 92.2746 37.3661 93.0985 37.3661C93.922 37.3661 94.6407 37.1642 95.2546 36.7603C95.8686 36.3563 96.343 35.763 96.679 34.9814C97.0199 34.1997 97.1907 33.2397 97.1907 32.1015ZM103.169 40.1599V24.0431H109.622C110.808 24.0431 111.797 24.2189 112.589 24.5704C113.381 24.9215 113.977 25.4095 114.376 26.034C114.774 26.653 114.974 27.3667 114.974 28.1745C114.974 28.8041 114.848 29.3576 114.596 29.8351C114.344 30.307 113.998 30.6953 113.557 30.9995C113.122 31.2987 112.623 31.5112 112.062 31.6371V31.7943C112.676 31.8205 113.25 31.9937 113.785 32.314C114.326 32.6339 114.764 33.0826 115.099 33.6593C115.435 34.2314 115.603 34.9134 115.603 35.7056C115.603 36.5608 115.391 37.3238 114.966 37.9957C114.546 38.662 113.924 39.1894 113.1 39.5772C112.277 39.9655 111.262 40.1599 110.055 40.1599H103.169ZM106.577 37.3737H109.355C110.304 37.3737 110.997 37.1929 111.432 36.8308C111.868 36.4636 112.086 35.9756 112.086 35.3672C112.086 34.9214 111.978 34.5276 111.763 34.1866C111.548 33.8456 111.241 33.5782 110.842 33.3843C110.449 33.1899 109.979 33.0927 109.433 33.0927H106.577V37.3737ZM106.577 30.787H109.103C109.57 30.787 109.984 30.7059 110.346 30.5432C110.714 30.3755 111.002 30.1393 111.212 29.8351C111.427 29.5304 111.535 29.1662 111.535 28.7412C111.535 28.1589 111.328 27.689 110.913 27.3324C110.504 26.9759 109.921 26.7971 109.166 26.7971H106.577V30.787ZM132.041 29.6855H128.594C128.531 29.2393 128.402 28.8434 128.208 28.4969C128.014 28.1453 127.765 27.8467 127.461 27.5999C127.156 27.3536 126.805 27.1647 126.406 27.0333C126.013 26.9023 125.585 26.8369 125.124 26.8369C124.289 26.8369 123.563 27.0439 122.943 27.4584C122.324 27.8673 121.844 28.4657 121.503 29.2524C121.162 30.034 120.992 30.9839 120.992 32.1015C120.992 33.2503 121.162 34.2158 121.503 34.9975C121.85 35.7791 122.332 36.3694 122.951 36.7678C123.57 37.1667 124.286 37.3661 125.1 37.3661C125.556 37.3661 125.979 37.3057 126.367 37.1848C126.76 37.0645 127.109 36.8887 127.413 36.658C127.718 36.4218 127.97 36.1357 128.169 35.7998C128.374 35.4644 128.515 35.0811 128.594 34.651L132.041 34.6666C131.952 35.4064 131.728 36.1201 131.372 36.8071C131.02 37.4895 130.545 38.1005 129.948 38.6409C129.355 39.1763 128.646 39.6008 127.823 39.9156C127.004 40.2254 126.078 40.38 125.045 40.38C123.607 40.38 122.322 40.0546 121.189 39.4044C120.061 38.7537 119.169 37.8119 118.513 36.5789C117.862 35.346 117.537 33.8537 117.537 32.1015C117.537 30.3438 117.867 28.8484 118.529 27.6155C119.19 26.3826 120.087 25.4438 121.22 24.7986C122.353 24.1479 123.628 23.8225 125.045 23.8225C125.979 23.8225 126.844 23.954 127.642 24.2159C128.444 24.4783 129.155 24.8615 129.774 25.3652C130.393 25.8633 130.897 26.4747 131.285 27.1985C131.679 27.9227 131.93 28.7517 132.041 29.6855ZM144.235 40.1599L139.057 33.2896H137.892V40.1599H134.484V24.0431H137.892V30.4803H138.577L143.928 24.0431H148.169L141.882 31.5188L148.461 40.1599H144.235ZM164.075 32.1015C164.075 33.8587 163.742 35.3541 163.076 36.587C162.415 37.8199 161.513 38.7618 160.369 39.412C159.231 40.0576 157.95 40.38 156.529 40.38C155.096 40.38 153.811 40.0546 152.673 39.4044C151.534 38.7537 150.634 37.8119 149.973 36.5789C149.312 35.346 148.982 33.8537 148.982 32.1015C148.982 30.3438 149.312 28.8484 149.973 27.6155C150.634 26.3826 151.534 25.4438 152.673 24.7986C153.811 24.1479 155.096 23.8225 156.529 23.8225C157.95 23.8225 159.231 24.1479 160.369 24.7986C161.513 25.4438 162.415 26.3826 163.076 27.6155C163.742 28.8484 164.075 30.3438 164.075 32.1015ZM160.621 32.1015C160.621 30.9627 160.451 30.0028 160.109 29.2211C159.774 28.4395 159.299 27.8467 158.685 27.4427C158.071 27.0388 157.352 26.8369 156.529 26.8369C155.705 26.8369 154.986 27.0388 154.373 27.4427C153.759 27.8467 153.281 28.4395 152.94 29.2211C152.604 30.0028 152.436 30.9627 152.436 32.1015C152.436 33.2397 152.604 34.1997 152.94 34.9814C153.281 35.763 153.759 36.3563 154.373 36.7603C154.986 37.1642 155.705 37.3661 156.529 37.3661C157.352 37.3661 158.071 37.1642 158.685 36.7603C159.299 36.3563 159.774 35.763 160.109 34.9814C160.451 34.1997 160.621 33.2397 160.621 32.1015ZM166.6 40.1599V24.0431H177.46V26.8525H170.007V30.6928H176.901V33.5022H170.007V37.3505H177.491V40.1599H166.6Z" fill="#8BB174"/>
<path d="M19.9285 16.9301V15.9087H24.7417V16.9301H22.9475V21.7692H21.7227V16.9301H19.9285ZM30.5165 15.9087V21.7692H29.2918V16.916H26.9223V21.7692H25.6975V15.9087H30.5165ZM32.3287 21.8492V20.8419H32.6463C32.8047 20.8419 32.9326 20.8228 33.0298 20.7845C33.127 20.7447 33.2046 20.6863 33.2615 20.6103C33.3209 20.5322 33.3703 20.4345 33.4106 20.3181L33.4821 20.1268L31.3528 15.9087H32.6349L34.0144 18.7931L35.1673 15.9087H36.4325L34.4118 20.6188C34.3146 20.8364 34.1993 21.0384 34.0658 21.2252C33.9338 21.4126 33.7651 21.5632 33.5591 21.6775C33.3531 21.7918 33.0897 21.8492 32.7694 21.8492H32.3287Z" fill="#8BB174"/>
</svg>
