<svg width="18" height="24" viewBox="0 0 18 24" fill="none" xmlns="http://www.w3.org/2000/svg">
<path d="M9.17052 0.723145H15.7507C15.8256 0.723145 15.8863 0.783957 15.8863 0.858619V3.48014C15.8863 3.55492 15.8256 3.61561 15.7508 3.61561H9.1706H2.64329C2.5685 3.61561 2.50781 3.55492 2.50781 3.48014V0.858619C2.50781 0.783835 2.5685 0.723145 2.64329 0.723145H9.17052Z" stroke="white"/>
<path d="M2.50781 0.858619C2.50781 0.783835 2.5685 0.723145 2.64329 0.723145H8.6706V3.61561H2.64329C2.5685 3.61561 2.50781 3.55492 2.50781 3.48014V0.858619Z" stroke="white"/>
<path d="M9.67053 3.61569V0.723145H15.7507C15.8257 0.723145 15.8862 0.783872 15.8862 0.858506V0.858619V3.48022C15.8862 3.555 15.8255 3.61569 15.7507 3.61569H9.67053Z" stroke="white"/>
<path d="M17.1929 8.6904L17.1931 8.69112C17.1955 8.70084 17.1969 8.71129 17.1969 8.72245V8.72322V23.1415C17.1969 23.2163 17.1362 23.277 17.0614 23.277H9.17049H1.3325C1.25771 23.277 1.19702 23.2163 1.19702 23.1415V8.7233C1.19702 8.71252 1.19834 8.70153 1.20113 8.6904L1.20113 8.69039L2.41713 3.82617H9.17057H15.9768L17.1929 8.6904ZM0.716367 8.56921L0.716411 8.56922L0.716367 8.56921Z" stroke="white"/>
<path d="M2.4172 3.82605H8.67049V23.2769H1.3325C1.25771 23.2769 1.19702 23.2162 1.19702 23.1414V8.72318C1.19702 8.7124 1.19834 8.70141 1.20113 8.69028L2.4172 3.82605Z" stroke="white"/>
<path d="M17.1929 8.6904L17.1931 8.69112C17.1956 8.70083 17.197 8.71153 17.197 8.72322V23.1415C17.197 23.2163 17.1363 23.277 17.0615 23.277H9.67053V3.82617H15.9769L17.1929 8.6904Z" stroke="white"/>
<path d="M8.10085 8.12493L7.93245 8.59572C7.87938 8.57674 7.82113 8.59208 7.7847 8.63334L7.78469 8.63335C7.74793 8.67497 7.74026 8.73474 7.76529 8.78427L7.76529 8.78427C7.78826 8.8301 7.96686 9.20651 8.10785 9.72627C8.24944 10.2483 8.37075 10.9776 8.203 11.6753L8.015 12.4573L7.39693 11.9427C6.91474 11.5412 6.19105 11.1422 5.25508 11.2094L8.10085 8.12493ZM8.10085 8.12493C7.85564 8.03722 7.58211 8.10741 7.40994 8.30234C7.23769 8.49735 7.20169 8.77762 7.31906 9.00982C7.32615 9.02367 7.79322 9.98767 7.78434 10.9783C7.87457 11.0434 7.95876 11.1093 8.03678 11.1742L8.10085 8.12493ZM8.10085 8.12493L7.93197 8.59555C8.29854 8.72709 8.62938 8.87859 8.92945 9.04373C10.3625 9.83238 11.0967 10.9528 11.4714 11.8274L11.4714 11.8275C11.5234 11.9487 11.5697 12.068 11.6111 12.1846L12.0041 13.2919L12.5295 12.241L13.008 11.284L12.5608 11.0603L13.008 11.2839C13.0297 11.2407 13.0727 11.2122 13.1211 11.2093C13.173 11.2072 13.218 11.2319 13.2434 11.2715L13.2434 11.2716M8.10085 8.12493L13.2434 11.2716M12.3906 11.4336C12.3906 11.4336 12.3906 11.4337 12.3906 11.4337L12.3697 11.4426L12.3906 11.4336ZM12.3906 11.4336C12.3881 11.4278 12.3855 11.4219 12.383 11.416L12.3697 11.4426L12.3906 11.4336ZM13.2434 11.2716C14.5528 13.3199 14.8991 15.0792 14.4357 16.5473M13.2434 11.2716L11.8693 19.3346M5.14373 11.2836L5.14364 11.2838C5.12343 11.324 4.45208 12.675 4.27609 14.339L4.27609 14.339C4.03628 16.6058 4.8221 18.295 6.50479 19.3246L5.14373 11.2836ZM5.14373 11.2836C5.16505 11.2412 5.20724 11.2129 5.25497 11.2094L5.14373 11.2836ZM11.8693 19.3346L11.8703 19.3342C11.938 19.3063 13.8174 18.5058 14.4357 16.5473M11.8693 19.3346C11.8538 19.341 11.8366 19.3445 11.8185 19.3445H9.1706H6.57557C6.55073 19.3445 6.52626 19.3377 6.50487 19.3246L11.8693 19.3346ZM14.4357 16.5473L14.9125 16.6979L14.4357 16.5473Z" stroke="white"/>
<path d="M8.67072 19.3446V8.90866C8.44172 8.79547 8.19619 8.69032 7.93209 8.59555L8.10097 8.12493L7.93257 8.59572C7.8795 8.57674 7.82126 8.59208 7.78482 8.63334L7.78473 8.63343C7.74806 8.67493 7.74033 8.73464 7.76541 8.78427L7.76541 8.78427C7.78838 8.8301 7.96698 9.20651 8.10797 9.72627C8.24956 10.2483 8.37087 10.9776 8.20312 11.6753L8.01512 12.4573L7.39705 11.9427C6.91485 11.5412 6.19112 11.1421 5.25509 11.2094L5.25503 11.2094C5.20751 11.2128 5.16525 11.241 5.14385 11.2836L5.14376 11.2838C5.12356 11.324 4.4522 12.675 4.27621 14.3391L4.27621 14.3391C4.0364 16.6059 4.82223 18.2951 6.50491 19.3246L8.67072 19.3446ZM8.67072 19.3446H6.57569C6.55085 19.3446 6.52638 19.3378 6.50499 19.3247L8.67072 19.3446Z" stroke="white"/>
<path d="M13.2434 11.2717L13.2434 11.2718C14.5528 13.32 14.8991 15.0795 14.4356 16.5476L14.4356 16.5476C13.8174 18.506 11.938 19.3066 11.8702 19.3344L11.8692 19.3348C11.8537 19.3413 11.8365 19.3448 11.8185 19.3448H9.67053V9.52355C10.6276 10.248 11.1677 11.1185 11.4714 11.8276L11.4714 11.8276C11.5234 11.9489 11.5697 12.0681 11.6111 12.1848L12.0041 13.2921L12.5295 12.2412L13.0081 11.2841C13.0297 11.2408 13.0727 11.2124 13.1211 11.2094C13.173 11.2073 13.218 11.232 13.2434 11.2717Z" stroke="white"/>
<path d="M7.88626 19.3448C7.83365 19.3448 7.78562 19.3142 7.76335 19.2663L7.76331 19.2663C7.29483 18.2575 7.41461 17.3869 7.7535 16.6893C7.99004 16.2023 8.33568 15.7978 8.67054 15.5031V19.3448H7.88626Z" stroke="white"/>
<path d="M10.991 17.1301L10.991 17.1301C10.8156 16.521 10.41 16.0355 10.0137 15.6876C9.89238 15.5811 9.77507 15.4903 9.67053 15.4154V19.3447H10.5077C10.5553 19.3447 10.5995 19.3197 10.624 19.2787L10.991 17.1301ZM10.991 17.1301C11.1841 17.8001 11.0815 18.5136 10.6241 19.2787L10.991 17.1301Z" stroke="white"/>
</svg>
